<svg id="Layer_5" enable-background="new 0 0 64 64" height="512" viewBox="0 0 64 64" width="512" xmlns="http://www.w3.org/2000/svg"><g><g><g><path d="m40 62h-8c0-2.21 1.79-4 4-4 .73 0 1.41.2 2 .54.3.17.58.39.83.63.72.73 1.17 1.73 1.17 2.83z" fill="#d3a06c"/></g><g><path d="m32 62h-8c0-1.48.8-2.77 2-3.46.59-.34 1.27-.54 2-.54 1.1 0 2.1.45 2.83 1.17.72.73 1.17 1.73 1.17 2.83z" fill="#d3a06c"/></g><g><path d="m30.83 59.17c-.73-.72-1.73-1.17-2.83-1.17-.73 0-1.41.2-2 .54v-7.99-4.55-4h12v4 4.55 7.99c-.59-.34-1.27-.54-2-.54-2.21 0-4 1.79-4 4 0-1.1-.45-2.1-1.17-2.83z" fill="#969faa"/></g><g><path d="m26.38 21.7 1.62 6.3 2.68-2.68-1.68 9.68 3 4 3-4-1.68-9.68 2.68 2.68 1.62-6.3c.23.06.46.08.69.04v.01c2.92 1.88 4.96 4.94 5.53 8.46.11.65.16 1.31.16 1.99v5.8c0 1.1-.9 2-2 2h-4v2h-12v-2h-4c-1.1 0-2-.9-2-2v-4.39-1.41c0-4.33 2.23-8.22 5.69-10.45v-.01c.23.04.46.02.69-.04z" fill="#b4dd7f"/></g><g><path d="m32 24 1.32 1.32 1.68 9.68-3 4-3-4 1.68-9.68z" fill="#e6e9ed"/></g><g><path d="m36.98 21.4.23.13c.13.08.27.13.41.17l-1.62 6.3-2.68-2.68-1.32-1.32h.67c.78 0 1.47-.53 1.68-1.28l.07-.25c.14-.52.52-.94 1.01-1.15.01 0 .01 0 .02-.01.5-.21 1.06-.17 1.53.09z" fill="#a0d468"/></g><g><path d="m28.57 21.32c.49.21.87.63 1.01 1.15l.07.25c.21.75.9 1.28 1.68 1.28h.67l-1.32 1.32-2.68 2.68-1.62-6.3c.14-.04.28-.09.41-.17l.23-.13c.47-.26 1.03-.3 1.53-.09.01.01.01.01.02.01z" fill="#a0d468"/></g><g><path d="m42 40v4c0 1.1-.9 2-2 2h-2v-4-2z" fill="#f0d0b4"/></g><g><path d="m26 42v4h-2c-1.1 0-2-.9-2-2v-4h4z" fill="#f0d0b4"/></g><g><path d="m53.87 21.66c.69.54 1.13 1.39 1.13 2.34 0 1.66-1.34 3-3 3-.67 0-1.28-.22-1.78-.59-.74-.54-1.22-1.42-1.22-2.41 0-1.66 1.34-3 3-3 .71 0 1.36.25 1.87.66z" fill="#ff826e"/></g><g><path d="m51.87 2.66c.69.54 1.13 1.39 1.13 2.34 0 1.66-1.34 3-3 3-.67 0-1.28-.22-1.78-.59-.74-.54-1.22-1.42-1.22-2.41 0-1.66 1.34-3 3-3 .71 0 1.36.25 1.87.66z" fill="#ff826e"/></g><g><path d="m57 44c1.66 0 3 1.34 3 3 0 1.07-.56 2.02-1.41 2.54-.46.29-1 .46-1.59.46-1.66 0-3-1.34-3-3 0-1.06.55-1.99 1.38-2.53.47-.29 1.02-.47 1.62-.47z" fill="#ff826e"/></g><g><path d="m19.52 55.38c.3.47.48 1.02.48 1.62 0 1.66-1.34 3-3 3-1.07 0-2.02-.56-2.54-1.41-.29-.46-.46-1-.46-1.59 0-1.66 1.34-3 3-3 1.06 0 1.99.55 2.52 1.38z" fill="#ff826e"/></g><g><path d="m9 17c1.66 0 3 1.34 3 3 0 1.02-.51 1.92-1.28 2.46-.49.34-1.08.54-1.72.54-1.66 0-3-1.34-3-3 0-1.02.51-1.93 1.29-2.46.48-.34 1.07-.54 1.71-.54z" fill="#ff826e"/></g><g><path d="m32 19c3.31 0 6-2.69 6-6s-2.69-6-6-6-6 2.69-6 6 2.69 6 6 6zm-4.98 2.4-.23.13c-.13.08-.27.13-.41.17-.23.06-.46.08-.69.04-.37-.04-.72-.21-1-.49l-.94-.94c-.56-.56-.67-1.42-.28-2.1l.13-.23c.26-.47.3-1.03.09-1.53-.01-.01-.01-.01-.01-.02-.21-.49-.63-.87-1.15-1.01l-.25-.07c-.75-.21-1.28-.9-1.28-1.68v-1.34c0-.78.53-1.47 1.28-1.68l.07-.02.18-.05c.52-.14.94-.52 1.15-1.01 0-.01 0-.01.01-.02.21-.5.17-1.06-.09-1.53l-.13-.23c-.39-.68-.28-1.54.28-2.1l.94-.94c.56-.56 1.42-.67 2.1-.28l.23.13c.47.26 1.03.3 1.53.09.01-.01.01-.01.02-.01.49-.21.87-.63 1.01-1.15l.07-.25c.21-.75.9-1.28 1.68-1.28h1.34c.78 0 1.47.53 1.68 1.28l.07.25c.14.52.52.94 1.01 1.15.01 0 .01 0 .02.01.5.21 1.06.17 1.53-.09l.23-.13c.68-.39 1.54-.28 2.1.28l.94.94c.56.56.67 1.42.28 2.1l-.13.23c-.26.47-.3 1.03-.09 1.53.01.01.01.01.01.02.21.49.63.87 1.15 1.01l.18.05.07.02c.75.21 1.28.9 1.28 1.68v1.34c0 .78-.53 1.47-1.28 1.68l-.25.07c-.52.14-.94.52-1.15 1.01 0 .01 0 .01-.01.02-.21.5-.17 1.06.09 1.53l.13.23c.39.68.28 1.54-.28 2.1l-.94.94c-.28.28-.63.45-1 .49-.23.04-.46.02-.69-.04-.14-.04-.28-.09-.41-.17l-.23-.13c-.47-.26-1.03-.3-1.53-.09-.01.01-.01.01-.02.01-.49.21-.87.63-1.01 1.15l-.07.25c-.21.75-.9 1.28-1.68 1.28h-.67-.67c-.78 0-1.47-.53-1.68-1.28l-.07-.25c-.14-.52-.52-.94-1.01-1.15-.01 0-.01 0-.02-.01-.5-.21-1.06-.17-1.53.09z" fill="#ffc729"/></g><g><path d="m32 7c3.31 0 6 2.69 6 6s-2.69 6-6 6-6-2.69-6-6 2.69-6 6-6zm2 6c0-1.1-.9-2-2-2s-2 .9-2 2 .9 2 2 2 2-.9 2-2z" fill="#fcd770"/></g></g><g><path d="m32 16c1.654 0 3-1.346 3-3s-1.346-3-3-3-3 1.346-3 3 1.346 3 3 3zm0-4c.552 0 1 .448 1 1s-.448 1-1 1-1-.448-1-1 .448-1 1-1z"/><path d="m32 20c3.859 0 7-3.141 7-7s-3.141-7-7-7-7 3.141-7 7 3.141 7 7 7zm0-12c2.757 0 5 2.243 5 5s-2.243 5-5 5-5-2.243-5-5 2.243-5 5-5z"/><path d="m59.866 49.781c.699-.721 1.134-1.7 1.134-2.781 0-2.206-1.794-4-4-4-.447 0-.87.091-1.272.227-2.493-3.554-5.54-7.38-8.943-11.23 1.274-1.441 2.502-2.883 3.67-4.309.475.2.997.312 1.545.312 2.206 0 4-1.794 4-4 0-.914-.32-1.747-.837-2.421 4.299-6.004 10.347-15.854 6.73-19.472-1.59-1.59-4.558-1.441-8.794.393-.735-.907-1.843-1.5-3.099-1.5-2.206 0-4 1.794-4 4 0 .443.089.861.223 1.259-1.503.962-3.08 2.046-4.708 3.239-.116-.081-.217-.184-.278-.33-.091-.217-.077-.455.037-.655l.128-.225c.61-1.07.428-2.428-.443-3.301l-.946-.946c-.872-.87-2.227-1.054-3.3-.442l-.225.129c-.199.113-.438.127-.673.029-.213-.089-.37-.267-.43-.486l-.07-.251c-.326-1.19-1.414-2.02-2.646-2.02h-1.338c-1.232 0-2.32.83-2.647 2.021l-.068.25c-.06.22-.217.397-.447.493-.218.091-.457.077-.655-.037l-.225-.128c-1.07-.611-2.43-.428-3.301.443l-.946.946c-.87.872-1.053 2.229-.442 3.3l.129.225c.113.2.127.438.029.673-.055.133-.153.232-.267.311-6.195-4.54-16.624-11.15-20.383-7.39-2.884 2.883.41 9.749 3.896 15.271-.617.704-1.004 1.615-1.004 2.622 0 2.206 1.794 4 4 4 .504 0 .982-.104 1.426-.275 2.035 2.698 4.306 5.467 6.785 8.271-9.873 11.174-19.549 25.452-15.104 29.897.742.742 1.774 1.113 3.091 1.113 2.21-.001 5.232-1.058 9.019-3.142.721.7 1.701 1.136 2.783 1.136 2.206 0 4-1.794 4-4 0-.447-.091-.869-.226-1.271 1.371-.962 2.782-2 4.226-3.121v5.417c-1.207.914-2 2.348-2 3.974v1h8 2 8v-1c0-1.627-.793-3.061-2-3.974v-5.421c4.764 3.676 14.23 10.387 19.83 10.387 1.243 0 2.295-.331 3.063-1.099 1.989-1.987 1.301-6.064-2.027-12.111zm-.866-2.781c0 1.103-.897 2-2 2s-2-.897-2-2 .897-2 2-2 2 .897 2 2zm-7-21c-1.103 0-2-.897-2-2s.897-2 2-2 2 .897 2 2-.897 2-2 2zm8.479-22.479c1.507 1.507-.079 7.281-6.891 16.811-.487-.212-1.023-.332-1.588-.332-2.206 0-4 1.794-4 4 0 .934.335 1.782.873 2.464-1.094 1.335-2.242 2.683-3.431 4.033-.231-.255-.46-.509-.693-.764-.572-3.086-2.186-5.874-4.624-7.886l.834-.834c.87-.872 1.053-2.229.442-3.3l-.129-.225c-.113-.2-.127-.438-.029-.673.089-.213.267-.37.486-.43l.251-.069c1.19-.327 2.02-1.415 2.02-2.647v-1.338c0-.643-.23-1.244-.615-1.72 1.354-.975 2.665-1.867 3.923-2.672.712.653 1.652 1.061 2.692 1.061 2.206 0 4-1.794 4-4 0-.235-.03-.462-.069-.687 3.259-1.406 5.63-1.709 6.548-.792zm-21.479 37.479h2v3c0 .552-.448 1-1 1h-1zm3-2h-3v-8h-2v10h-10v-10h-2v8h-3c-.552 0-1-.448-1-1v-5.802c0-3.668 1.746-7.049 4.678-9.202l1.79 6.949 1.685-1.685-1.212 6.994 4.059 5.413 4.059-5.412-1.212-6.993 1.684 1.685 1.79-6.95c2.933 2.153 4.679 5.533 4.679 9.201v5.802c0 .552-.448 1-1 1zm-19 2h2v4h-1c-.552 0-1-.448-1-1zm10.941-6.255-1.941 2.588-1.941-2.588 1.55-8.94.391-.391.391.392zm.098-10.12c.609-.354 1.081-.932 1.277-1.645l.068-.25c.06-.22.217-.397.447-.493.202-.086.421-.071.613.024l-.976 3.793zm-5.508 1.43-.977-3.794c.192-.094.411-.109.631-.017.213.089.37.267.43.486l.069.251c.195.712.667 1.291 1.276 1.644zm21.469-23.055c1.103 0 2 .897 2 2s-.897 2-2 2-2-.897-2-2 .897-2 2-2zm-25.391 6.939c.331-.794.278-1.675-.145-2.417l-.128-.225c-.166-.291-.117-.66.119-.896l.945-.944c.238-.237.607-.285.897-.12l.225.127c.743.426 1.626.478 2.431.139.788-.327 1.368-.985 1.592-1.805l.067-.249c.089-.323.385-.549.719-.549h1.338c.334 0 .63.226.718.548l.068.25c.224.819.804 1.478 1.605 1.812.793.33 1.675.279 2.417-.145l.225-.128c.291-.168.66-.117.896.119l.945.944c.237.237.286.606.12.897l-.127.225c-.424.742-.477 1.623-.139 2.431.327.788.985 1.368 1.805 1.592l.249.067c.323.089.549.385.549.719v1.338c0 .334-.226.63-.548.718l-.25.068c-.819.224-1.478.804-1.812 1.605-.331.794-.278 1.675.145 2.417l.128.225c.166.291.117.66-.119.896l-.944.945c-.238.238-.606.285-.897.12l-.225-.127c-.743-.426-1.626-.478-2.431-.139-.788.327-1.368.985-1.592 1.805l-.067.249c-.089.323-.385.549-.719.549h-1.338c-.334 0-.63-.226-.718-.548l-.068-.25c-.224-.819-.804-1.478-1.605-1.812-.345-.144-.707-.216-1.066-.216-.467 0-.931.121-1.351.36l-.225.128c-.291.167-.66.116-.896-.119l-.945-.943c-.237-.237-.286-.606-.12-.897l.127-.225c.424-.742.477-1.623.139-2.431-.327-.788-.985-1.368-1.805-1.592l-.249-.067c-.323-.089-.549-.385-.549-.719v-1.338c0-.334.226-.63.548-.718l.25-.068c.819-.224 1.477-.804 1.811-1.606zm-21.088-6.418c1.542-1.542 7.406.115 17.091 7.092-.383.476-.612 1.076-.612 1.718v1.338c0 1.232.83 2.32 2.021 2.647l.25.068c.22.06.397.217.493.447.091.217.077.455-.037.655l-.128.225c-.61 1.07-.428 2.428.443 3.301l.833.833c-2.787 2.301-4.504 5.611-4.805 9.227-2.573-2.889-4.925-5.742-7.02-8.516.584-.695.95-1.579.95-2.556 0-2.206-1.794-4-4-4-.473 0-.92.097-1.341.248-4.79-7.61-5.252-11.612-4.138-12.727zm3.479 16.479c0-1.103.897-2 2-2s2 .897 2 2-.897 2-2 2-2-.897-2-2zm10 39c-1.103 0-2-.897-2-2s.897-2 2-2 2 .897 2 2-.897 2-2 2zm2.682-4.948c-.711-.647-1.647-1.052-2.682-1.052-2.206 0-4 1.794-4 4 0 .402.077.782.188 1.148-7.155 3.923-9.205 2.789-9.667 2.33-2.315-2.315 2.708-12.988 15.04-26.978.148.163.29.326.439.489v4.011c0 1.302.839 2.402 2 2.816v3.184c0 1.654 1.346 3 3 3h1v3.062c-1.824 1.451-3.606 2.787-5.318 3.99zm5.489 6.948c.413-1.164 1.525-2 2.829-2s2.416.836 2.829 2zm8 0c.413-1.164 1.525-2 2.829-2s2.416.836 2.829 2zm2.829-4c-1.13 0-2.162.391-3 1.026v-10.612l1.707-1.707-1.414-1.414-2.293 2.293v11.44c-.838-.635-1.87-1.026-3-1.026-.342 0-.677.035-1 .101v-14.101h10v14.101c-.323-.066-.658-.101-1-.101zm24.479 3.479c-1.861 1.86-9.825-1.145-21.479-10.419v-3.06h1c1.654 0 3-1.346 3-3v-3.184c1.161-.414 2-1.514 2-2.816v-5.004c3.452 3.884 6.538 7.746 9.051 11.324-.646.711-1.051 1.646-1.051 2.68 0 2.206 1.794 4 4 4 .402 0 .783-.078 1.149-.188 3.923 7.155 2.791 9.205 2.33 9.667z"/></g></g></svg>